PathFileType	4	(X/Y/Z)	C:/Users/opensim2020/Desktop/walking_exp_matlab/subject01_walking15_straight_02.trc																																																																																																																															
DataRate	CameraRate	NumFrames	NumMarkers	Units	OrigDataRate	OrigDataStartFrame	OrigNumFrames																																																																																																																											
100	100	5	43	mm	100	1246	135																																																																																																																											
Frame#	Time	LFHD			RFHD			LBHD			RBHD			C7			T10			CLAV			STRN			RBAK			LSHO			LUPA			LELB			LFRM			LWRA			LWRB			LFIN			RSHO			RUPA			RELB			RFRM			RWRA			RWRB			RFIN			LASI			RASI			LPSI			RPSI			LTHI			LKNE			LTIB			LANK			LHEE			LTOE			RTHI			RKNE			RTIB			RANK			RHEE			RTOE			*39			*40			*41			*42		
		X1	Y1	Z1	X2	Y2	Z2	X3	Y3	Z3	X4	Y4	Z4	X5	Y5	Z5	X6	Y6	Z6	X7	Y7	Z7	X8	Y8	Z8	X9	Y9	Z9	X10	Y10	Z10	X11	Y11	Z11	X12	Y12	Z12	X13	Y13	Z13	X14	Y14	Z14	X15	Y15	Z15	X16	Y16	Z16	X17	Y17	Z17	X18	Y18	Z18	X19	Y19	Z19	X20	Y20	Z20	X21	Y21	Z21	X22	Y22	Z22	X23	Y23	Z23	X24	Y24	Z24	X25	Y25	Z25	X26	Y26	Z26	X27	Y27	Z27	X28	Y28	Z28	X29	Y29	Z29	X30	Y30	Z30	X31	Y31	Z31	X32	Y32	Z32	X33	Y33	Z33	X34	Y34	Z34	X35	Y35	Z35	X36	Y36	Z36	X37	Y37	Z37	X38	Y38	Z38	X39	Y39	Z39	X40	Y40	Z40	X41	Y41	Z41	X42	Y42	Z42	X43	Y43	Z43
																																																																																																																																		
102	1.01	380.99344	1666.71191	969.04706	411.24881	1678.77417	1078.37964	271.14243	1613.67554	997.09125	301.23737	1625.70447	1114.83557	251.45554	1429.28625	1037.97986	208.50717	1137.26733	1054.5437	395.4639	1361.48779	1045.13513	434.48404	1205.06738	1048.30432	189.99176	1242.7085	1119.38525	341.10321	1390.1958	882.52875	317.90051	1207.15784	797.87146	309.01852	1053.02954	798.80939	371.38831	954.73932	777.05298	478.98621	866.23303	793.06171	425.83691	845.27209	776.89069	487.71533	791.75214	760.98792	328.27594	1402.07898	1192.08582	244.35201	1214.19263	1294.22729	236.98312	1088.41626	1302.92639	257.08688	970.03729	1338.08179	331.991	848.16486	1322.14099	289.02472	852.23901	1361.27429	323.98181	772.43463	1364.59619	388.2453	937.31464	954.99536	381.776	936.91797	1171.57922	202.20226	941.96448	1006.06616	201.62326	940.82574	1150.83887	352.70056	598.20306	904.46564	337.25552	463.17343	922.68097	266.71085	285.52713	918.0246	210.53658	75.50659	969.94904	160.87569	50.50328	1022.27374	352.66058	32.35146	963.55957	422.50839	614.64307	1248.86133	474.17374	463.90723	1239.6322	361.08017	327.20352	1238.26355	256.68201	150.53429	1189.40869	204.1057	131.56512	1130.97156	359.02048	55.10366	1206.95752	393.26297	1709.90845	1056.14417	-1973.13635	1023.5528	3101.89478	-2012.47766	1021.97662	3140.65088	NaN	NaN	NaN
103	1.02	394.08157	1666.28735	969.40283	424.07071	1678.46912	1078.74585	284.0752	1613.42957	997.37799	314.23907	1625.0968	1114.82178	264.32379	1429.14343	1037.75513	220.80109	1137.30957	1053.61768	408.12833	1361.03687	1045.18469	446.92358	1204.69141	1048.22424	202.62164	1242.4502	1118.495	354.13901	1390.23975	882.60962	331.82916	1207.78748	797.02435	324.42026	1053.2489	796.82428	391.21878	957.58521	775.29779	502.52698	874.20618	791.32843	450.53036	850.69708	774.92633	514.77441	800.01666	759.4339	340.98743	1401.52844	1191.93591	255.53561	1213.79333	1293.28564	247.28227	1088.43848	1301.72876	263.52798	969.96667	1337.52026	334.49347	845.60114	1323.26123	291.20651	851.26947	1361.40564	323.56549	770.69409	1366.07629	399.82028	936.7157	954.31958	394.1962	937.21887	1170.79492	214.13638	941.75452	1006.03052	213.66354	940.48907	1150.59302	359.48996	598.08154	903.99371	340.75153	463.16287	921.98834	268.47623	286.22711	917.88159	210.74445	76.46777	970.14111	161.28763	51.75486	1022.67004	352.74188	32.36777	963.54871	438.75293	616.7027	1248.6123	492.42923	465.82751	1239.07263	387.21237	322.2728	1238.94568	293.23422	139.67276	1191.07605	242.17914	116.2375	1132.70166	402.00793	52.42454	1211.18909	406.20352	1709.79871	1056.65784	-1973.19202	1023.48358	3101.95142	-2012.552	1022.13525	3140.65259	NaN	NaN	NaN
104	1.03	406.97757	1666.02991	969.78949	436.89404	1678.04102	1079.19519	297.26248	1613.08057	998.62195	327.1113	1624.58899	1115.17676	277.17883	1428.91553	1037.84863	233.13815	1137.19666	1052.88416	420.93234	1360.53394	1045.39893	459.41373	1204.04504	1048.21216	215.28494	1242.07507	1117.75598	367.42319	1390.2738	882.76031	345.75412	1208.21497	796.36145	339.80133	1053.58533	794.77655	410.66785	960.33105	773.62958	525.62384	882.32489	789.67517	474.78595	856.26703	773.4621	541.49054	808.62183	757.97473	353.64636	1400.84753	1192.08459	266.77045	1213.28027	1292.50232	257.48273	1088.37622	1300.74268	270.06116	969.90533	1336.96106	337.35251	843.35608	1324.23438	293.65494	850.58539	1361.52625	323.49521	768.99121	1367.30469	411.37781	936.15051	953.60034	406.63983	937.25769	1170.14905	225.70456	941.21332	1005.87048	226.01128	940.06763	1150.53357	366.09464	597.99756	903.61188	344.53186	463.23764	921.3075	270.58215	287.12103	917.82568	211.24005	77.72196	970.5979	161.56425	53.45606	1023.27307	352.77411	32.39119	963.5025	454.33807	618.48022	1248.20068	509.91644	467.4126	1238.59692	412.97888	317.44461	1240.11096	330.63428	129.04218	1193.92773	281.49783	101.58878	1135.43457	445.44022	50.64901	1215.85583	418.88837	1709.18555	1057.12	-1973.16821	1023.41522	3101.96851	-2012.55444	1022.07684	3140.73633	NaN	NaN	NaN
105	1.04	419.58801	1665.86255	970.25519	449.74084	1677.50781	1079.65967	309.93332	1612.54895	998.28601	339.98041	1623.90454	1115.52686	289.97556	1428.62561	1038.29846	245.47939	1136.97278	1052.44788	433.74631	1359.89014	1045.62427	472.01382	1203.24854	1048.25635	227.92017	1241.51086	1117.14551	380.58615	1390.11133	882.97589	359.65244	1208.47058	795.87018	355.42944	1053.55603	793.43774	429.91061	963.20898	772.02594	548.06378	890.53015	788.12207	498.64459	862.11884	772.09406	567.33032	817.68854	756.5769	366.37546	1400.11255	1192.37854	277.84879	1212.71533	1291.98022	267.74124	1088.18604	1299.89319	276.7655	969.86084	1336.55688	340.41437	841.30261	1325.09375	296.37555	850.0174	1361.85938	323.68985	767.64728	1368.50952	422.7597	935.50659	952.91583	419.23285	937.09436	1169.547	237.43547	940.63068	1006.08826	238.10629	939.34485	1150.69556	372.60825	598.02325	903.26617	348.51529	463.42117	920.7735	272.74081	288.02994	917.96307	211.83269	79.09377	971.0285	162.08287	55.41251	1023.94159	352.73059	32.41164	963.58289	469.72235	619.82733	1247.98889	526.36688	468.62311	1238.37329	438.42947	312.8728	1241.6991	368.58072	118.97522	1197.7157	321.39761	87.60775	1139.49976	489.08093	49.48119	1220.93494	431.74786	1708.83826	1057.75049	-1973.05371	1023.3985	3101.98901	-2012.44019	1022.14935	3140.81519	NaN	NaN	NaN
106	1.05	432.81302	1665.14319	970.77686	462.62473	1676.9425	1080.21216	323.06284	1611.91553	998.92712	352.76239	1623.38416	1116.2915	302.9166	1428.10449	1038.14929	257.97375	1136.60815	1052.26587	446.6196	1359.11707	1045.93713	484.59424	1202.32813	1048.34741	240.55237	1240.87561	1116.77734	393.71954	1389.83337	883.25458	373.35574	1208.48608	795.5697	370.31323	1053.72852	791.47925	448.90936	966.13086	770.49542	570.0257	898.89886	786.6911	522.1153	868.10132	770.60004	593.13837	826.99683	755.1839	379.01807	1399.18164	1192.55713	289.17761	1211.94214	1291.44006	277.94382	1087.91138	1299.23438	283.62473	969.76538	1336.04419	343.9238	839.58606	1325.91418	299.52859	849.6214	1362.12842	324.32104	766.6236	1369.62378	434.78271	934.93726	952.22675	431.96848	936.7829	1169.05725	249.05771	939.75854	1006.48077	250.50583	938.24799	1150.81921	379.10321	598.15808	903.14423	352.7558	463.74097	920.37329	274.9263	289.0834	918.06793	212.373	80.51453	971.52844	162.8436	57.32609	1024.72522	352.7832	32.37512	963.70209	484.69794	620.52203	1248.0105	541.89478	469.35416	1238.07605	463.45639	308.74646	1243.95361	407.15967	109.72516	1202.51648	362.71591	74.82021	1144.052	532.16119	48.66153	1225.73059	444.53217	1708.1615	1058.28369	-1973.10693	1023.56409	3101.93237	-2012.46497	1022.00781	3140.81421	NaN	NaN	NaN
